<svg width="300" height="17" viewBox="0 0 300 17" fill="none" xmlns="http://www.w3.org/2000/svg">
<g clip-path="url(#clip0_1_53)">
<path fill-rule="evenodd" clip-rule="evenodd" d="M255.983 6.81848C255.983 8.83901 255.429 10.4376 254.317 11.6121C253.206 12.7866 251.675 13.376 249.719 13.376C247.764 13.376 246.242 12.7887 245.13 11.6121C244.019 10.4376 243.464 8.83249 243.464 6.80108C243.464 4.76967 244.025 3.17978 245.146 2.01618C246.266 0.852583 247.797 0.269695 249.739 0.269695C251.681 0.269695 253.223 0.854758 254.328 2.02488C255.433 3.19501 255.985 4.7936 255.985 6.81848H255.983ZM244.528 6.81848C244.528 8.64109 244.974 10.0505 245.87 11.0466C246.764 12.0427 248.047 12.5408 249.719 12.5408C251.392 12.5408 252.695 12.0471 253.584 11.0596C254.476 10.0722 254.92 8.65849 254.92 6.81848C254.92 4.97847 254.474 3.5778 253.584 2.59907C252.693 1.62034 251.412 1.13098 249.739 1.13098C248.066 1.13098 246.788 1.62469 245.883 2.61212C244.978 3.59955 244.528 5.00022 244.528 6.81848Z" fill="#0094FF"/>
<path fill-rule="evenodd" clip-rule="evenodd" d="M230.836 6.9555C231.674 6.30084 232.091 5.35691 232.091 4.12589L232.089 4.12806C232.089 1.68994 230.573 0.469791 227.544 0.469791H224.427V13.1976H225.314V7.93858H227.283C228.816 7.93858 230.001 7.61234 230.836 6.9555ZM227.067 7.173H225.316V1.27017H227.424C228.69 1.27017 229.623 1.50507 230.228 1.97921C230.83 2.45335 231.132 3.17978 231.132 4.16069C231.132 5.22206 230.815 5.98982 230.175 6.46396C229.538 6.93593 228.501 7.173 227.067 7.173Z" fill="#0094FF"/>
<path fill-rule="evenodd" clip-rule="evenodd" d="M234.677 13.1998V7.65366H237.838L241.12 13.1998H242.181L238.725 7.40137C239.643 7.14472 240.326 6.72496 240.776 6.13772C241.226 5.55048 241.45 4.83057 241.45 3.97799C241.45 2.80569 241.074 1.92701 240.319 1.34412C239.565 0.761235 238.399 0.469791 236.82 0.469791H233.79V13.1998H234.677ZM237.107 6.88808H234.677V1.27235H236.785C238.096 1.27235 239.043 1.49202 239.623 1.93353C240.202 2.37505 240.493 3.11453 240.493 4.04976C240.493 4.98499 240.197 5.69185 239.606 6.17034C239.014 6.64883 238.181 6.88808 237.107 6.88808Z" fill="#0094FF"/>
<path d="M255.616 16.1795C255.959 16.3361 256.397 16.4144 256.932 16.4144V16.4122C258.917 16.4122 259.909 15.3421 259.909 13.1998V0.469791H259.022V13.289C259.022 14.8223 258.319 15.5879 256.914 15.5879C256.501 15.5879 256.068 15.5292 255.616 15.4139V16.1795Z" fill="#0094FF"/>
<path d="M270.384 13.1998H263.426V0.469791H270.384V1.28757H264.313V6.10292H270.042V6.9207H264.313V12.3798H270.384V13.1998Z" fill="#0094FF"/>
<path d="M273.859 2.62082C274.777 1.59859 276.034 1.08748 277.631 1.08748L277.628 1.08965C278.648 1.08965 279.625 1.3202 280.554 1.78564L280.91 0.985255C279.93 0.52199 278.794 0.28927 277.576 0.28927C276.358 0.28927 275.288 0.556789 274.368 1.094C273.448 1.63122 272.743 2.39245 272.252 3.37988C271.763 4.36513 271.517 5.50698 271.517 6.80108C271.517 8.87381 272.032 10.4876 273.059 11.6425C274.088 12.7974 275.495 13.376 277.283 13.376C278.542 13.376 279.592 13.2281 280.434 12.9323V12.1493C279.54 12.4212 278.559 12.5582 277.491 12.5582C275.882 12.5582 274.647 12.0558 273.781 11.0509C272.915 10.0461 272.482 8.59542 272.482 6.81848C272.482 5.04154 272.941 3.64305 273.859 2.62082Z" fill="#0094FF"/>
<path d="M286.948 13.1998H286.052V1.30497H281.915V0.469791H291.085V1.30497H286.948V13.1998Z" fill="#0094FF"/>
<path d="M298.83 12.4429C299.609 11.823 300 10.9792 300 9.91779L299.998 9.91344C299.998 9.33273 299.883 8.83684 299.654 8.42795C299.426 8.01905 299.063 7.65366 298.562 7.33177C298.062 7.00988 297.316 6.67928 296.324 6.33564C295.378 6.0007 294.711 5.71143 294.321 5.47001C293.932 5.23076 293.653 4.95889 293.482 4.65658C293.31 4.35643 293.225 3.96929 293.225 3.4995C293.225 2.74914 293.503 2.15755 294.06 1.72256C294.617 1.28757 295.343 1.07008 296.307 1.07008C297.27 1.07008 298.28 1.28975 299.337 1.73126L299.659 0.96568C298.608 0.51329 297.462 0.287095 296.29 0.287095C295.117 0.287095 294.158 0.587238 293.412 1.18753C292.666 1.78781 292.294 2.56427 292.294 3.5169C292.294 4.38253 292.542 5.07417 293.038 5.59398C293.534 6.11379 294.432 6.59881 295.733 7.04467C296.622 7.34482 297.294 7.62756 297.753 7.88856C298.21 8.14955 298.543 8.43882 298.745 8.75419C298.947 9.07173 299.05 9.46975 299.05 9.95259C299.05 10.7312 298.745 11.3598 298.132 11.8383C297.518 12.3168 296.69 12.556 295.646 12.556C294.223 12.556 293.055 12.3624 292.138 11.9731V12.8605C292.968 13.202 294.162 13.3738 295.718 13.3738C297.012 13.3738 298.049 13.0649 298.83 12.4429Z" fill="#0094FF"/>
<path d="M50.8504 0.260994H54.6566V9.46105H60.1375V12.6365H50.8504V0.260994Z" fill="white"/>
<path d="M62.6169 0.260994H66.4231V12.6365H62.6169V0.260994Z" fill="white"/>
<path d="M73.1654 0.260994H69.2505V12.6365H72.8609V5.87237H72.9044L76.7323 12.6365H80.4298V0.260994H76.8194V6.87285H76.7758L73.1654 0.260994Z" fill="white"/>
<path d="M94.5017 7.85158C94.5017 11.3098 92.6748 12.9192 88.8686 12.9192C85.0624 12.9192 83.2137 11.288 83.2137 7.85158V0.260994H87.0199L87.0199 7.04562C87.0196 8.27933 87.0193 9.85254 88.8686 9.85254C90.6785 9.85254 90.676 8.36601 90.6739 7.12689L90.6738 7.00335V0.260994H94.48V7.85158H94.5017Z" fill="white"/>
<path d="M96.4809 0.260994L100.548 6.04637L96.0894 12.6365H100.461L102.636 8.93906L104.746 12.6365H109.335L104.92 6.08987L108.856 0.260994H104.637L102.81 3.63217L100.94 0.260994H96.4809Z" fill="white"/>
<path fill-rule="evenodd" clip-rule="evenodd" d="M133.586 6.48136C133.586 3.06668 131.628 0 127.735 0C123.82 0 121.884 3.06668 121.863 6.48136C121.863 9.89604 123.842 12.9627 127.735 12.9627C131.628 12.9627 133.586 9.89604 133.586 6.48136ZM132.389 6.48136C132.389 9.20005 130.997 11.9405 127.735 11.9405C124.451 11.9405 123.059 9.20005 123.059 6.48136C123.059 3.76267 124.473 1.02223 127.735 1.02223C130.997 1.02223 132.389 3.76267 132.389 6.48136Z" fill="white"/>
<path d="M121.058 0.260994H113.185V12.6582H114.359V6.74236H120.318V5.74188H114.359V1.26147H121.058V0.260994Z" fill="white"/>
<path d="M136.478 0.260994V7.96033C136.478 10.8313 137.827 11.9405 140.11 11.9405C142.394 11.9405 143.764 10.8313 143.764 7.96033V0.260994H144.939V8.22132C144.939 10.7878 143.569 12.9627 140.11 12.9627C136.652 12.9627 135.282 10.7878 135.282 8.22132V0.260994H136.478Z" fill="white"/>
<path d="M148.658 0.260994H147.331V12.68H148.506V2.17495H148.549L155.792 12.68H157.119V0.260994H155.944V10.766H155.901L148.658 0.260994Z" fill="white"/>
<path fill-rule="evenodd" clip-rule="evenodd" d="M159.598 0.260994H163.904C167.667 0.347993 169.603 2.3707 169.603 6.48136C169.603 10.592 167.645 12.6147 163.904 12.7017H159.598V0.260994ZM160.794 11.6795H163.317C166.884 11.6795 168.428 10.2005 168.428 6.48136C168.428 2.76219 166.884 1.28322 163.317 1.28322H160.794V11.6795Z" fill="white"/>
<path fill-rule="evenodd" clip-rule="evenodd" d="M176.476 0.260994H175.149L170.147 12.68H171.408L172.909 8.80856H178.564L180.086 12.68H181.348L176.476 0.260994ZM178.172 7.80808H173.279L175.78 1.43547L178.172 7.80808Z" fill="white"/>
<path d="M179.977 0.260994H189.808V1.26147H185.48V12.68H184.306V1.26147H179.977V0.260994Z" fill="white"/>
<path d="M192.244 0.260994H191.07V12.68H192.244V0.260994Z" fill="white"/>
<path fill-rule="evenodd" clip-rule="evenodd" d="M200.052 0C203.945 0 205.903 3.06668 205.903 6.48136C205.903 9.89604 203.945 12.9627 200.052 12.9627C196.159 12.9627 194.18 9.89604 194.18 6.48136C194.18 3.06668 196.137 0 200.052 0ZM200.052 11.9405C203.315 11.9405 204.707 9.20005 204.707 6.48136C204.707 3.76267 203.315 1.02223 200.052 1.02223C196.79 1.02223 195.376 3.76267 195.376 6.48136C195.354 9.1783 196.746 11.9405 200.052 11.9405Z" fill="white"/>
<path d="M209.035 0.260994H207.708V12.68H208.883V2.17495H208.926L216.169 12.68H217.495V0.260994H216.321V10.766H216.277L209.035 0.260994Z" fill="white"/>
<path d="M15.6379 0.260994H25.4905V1.26147H21.1405V12.68H19.9661V1.26147H15.6379V0.260994Z" fill="white"/>
<path d="M26.6649 0.260994H27.8177V5.65488H35.1907V0.260994H36.3652V12.68H35.1907V6.65536H27.8394V12.68H26.6649V0.260994Z" fill="white"/>
<path d="M47.4792 0.260994H38.9099V12.6582H47.5662V11.6577H40.0844V6.74236H47.0007V5.74188H40.0844V1.26147H47.4792V0.260994Z" fill="white"/>
<path d="M0 0.260994H12.419V12.68H8.69981V10.2005H9.93954V2.76219H2.47945V3.98016H0V0.260994Z" fill="white"/>
<path d="M2.47945 5.24164V10.2005H7.46009V12.68H0V5.24164H2.47945Z" fill="white"/>
</g>
<defs>
<clipPath id="clip0_1_53">
<rect width="300" height="17" fill="white"/>
</clipPath>
</defs>
</svg>
