<svg xmlns="http://www.w3.org/2000/svg" viewBox="0 0 71.84 71.84"><defs><style>.cls-1{fill:#44cceb;}.cls-2,.cls-3,.cls-4{fill:none;}.cls-2,.cls-3{stroke:#fff;stroke-linejoin:round;stroke-width:1.5px;}.cls-2{stroke-linecap:round;}</style></defs><g id="Layer_2" data-name="Layer 2"><g id="Layer_1-2" data-name="Layer 1"><circle class="cls-1" cx="36.3" cy="35.26" r="20.26"/><path class="cls-2" d="M11.32,19.68a30.13,30.13,0,0,1,50.07-.31"/><rect class="cls-3" x="6.26" y="48.33" width="11.95" height="11.73"/><ellipse class="cls-3" cx="36.31" cy="55.79" rx="8.14" ry="7.99"/><polygon class="cls-3" points="52.93 60.29 67.45 60.29 60.19 47.95 52.93 60.29"/><line class="cls-3" x1="39.33" y1="22.82" x2="58.75" y2="22.82"/><line class="cls-3" x1="13.64" y1="22.82" x2="33.11" y2="22.82"/><circle class="cls-2" cx="10.52" cy="22.82" r="3.13"/><circle class="cls-2" cx="36.2" cy="22.82" r="3.13"/><circle class="cls-2" cx="61.88" cy="22.82" r="3.13"/><path class="cls-3" d="M12.23,48.07V41.34c0-1.33.42-3,1.73-3.49l8.73-3a2.32,2.32,0,0,0,1.58-2.21V22.82"/><path class="cls-3" d="M60.19,49.05V41.34c0-1.33-.44-3-1.75-3.49l-8.73-3a2.32,2.32,0,0,1-1.58-2.21V22.82"/><line class="cls-3" x1="36.31" y1="47.81" x2="36.29" y2="26.4"/><rect class="cls-4" width="71.84" height="71.84"/></g></g></svg>