<svg xmlns="http://www.w3.org/2000/svg" viewBox="0 0 71.84 71.84"><defs><style>.cls-1{fill:#44cceb;}.cls-2,.cls-3{fill:none;}.cls-2{stroke:#fff;stroke-linecap:round;stroke-linejoin:round;stroke-width:1.5px;}</style></defs><g id="Layer_2" data-name="Layer 2"><g id="Layer_1-2" data-name="Layer 1"><circle class="cls-1" cx="35.92" cy="33.92" r="20.26"/><path class="cls-2" d="M39.6,46.91V43.66a12.29,12.29,0,0,1,3.19-8.18,9.35,9.35,0,1,0-13.93,0A12.15,12.15,0,0,1,32,43.66v3.25"/><line class="cls-2" x1="32.01" y1="49.19" x2="39.6" y2="49.19"/><line class="cls-2" x1="32.01" y1="51.58" x2="39.6" y2="51.58"/><line class="cls-2" x1="32.01" y1="53.94" x2="39.6" y2="53.94"/><circle class="cls-2" cx="16.42" cy="16.89" r="3.13"/><line class="cls-2" x1="18.63" y1="19.11" x2="26.46" y2="26.94"/><circle class="cls-2" cx="55.19" cy="55.66" r="3.13"/><line class="cls-2" x1="52.98" y1="53.45" x2="40.39" y2="40.87"/><circle class="cls-2" cx="55.19" cy="16.89" r="3.13"/><line class="cls-2" x1="52.98" y1="19.11" x2="45.56" y2="26.53"/><circle class="cls-2" cx="16.42" cy="55.66" r="3.13"/><line class="cls-2" x1="18.63" y1="53.45" x2="31.58" y2="40.5"/><circle class="cls-2" cx="35.8" cy="8.86" r="3.13"/><line class="cls-2" x1="35.8" y1="11.99" x2="35.8" y2="19.67"/><circle class="cls-2" cx="35.8" cy="63.69" r="3.13"/><line class="cls-2" x1="35.8" y1="60.56" x2="35.8" y2="54.66"/><circle class="cls-2" cx="63.22" cy="36.28" r="3.13"/><line class="cls-2" x1="60.09" y1="36.28" x2="42.65" y2="36.28"/><circle class="cls-2" cx="8.39" cy="36.28" r="3.13"/><line class="cls-2" x1="11.52" y1="36.28" x2="29.49" y2="36.28"/><rect class="cls-3" width="71.84" height="71.84"/></g></g></svg>