<svg xmlns="http://www.w3.org/2000/svg" viewBox="0 0 71.84 71.84"><defs><style>.cls-1{fill:#44cceb;}.cls-2,.cls-4{fill:none;}.cls-2{stroke:#fff;stroke-linecap:round;stroke-linejoin:round;stroke-width:1.5px;}.cls-3{fill:#fff;}</style></defs><g id="Layer_2" data-name="Layer 2"><g id="Layer_1-2" data-name="Layer 1"><circle class="cls-1" cx="35.65" cy="35.26" r="20.26"/><path class="cls-2" d="M5.75,36.28A30.13,30.13,0,0,1,63.36,24"/><circle class="cls-2" cx="7.31" cy="44.65" r="3.13"/><circle class="cls-2" cx="64" cy="27.18" r="3.13"/><path class="cls-2" d="M66,36.28A30.12,30.12,0,0,1,8.05,47.84"/><path class="cls-3" d="M51.42,44.92h-1a3,3,0,0,0-1.31.33,2.82,2.82,0,0,0-2.61-1.77h-1a2.78,2.78,0,0,0-2,.81,2.83,2.83,0,0,0-2-.81h-1a2.5,2.5,0,0,0-1.13.25V35.54a2.82,2.82,0,0,0-2.82-2.82h-1a2.82,2.82,0,0,0-2.82,2.82l0,17.65-1.4-1.8a4.72,4.72,0,0,0-6-1.24,5.87,5.87,0,0,0-.66.43,2,2,0,0,0-.76,1.35,2,2,0,0,0,.41,1.5l5.27,6.73a1.35,1.35,0,0,1,.28.82,5,5,0,0,0,4.72,4.92,6.83,6.83,0,0,0,1.43,0q.63,0,1.26,0l-.11-.08.81.07a22.75,22.75,0,0,1-3.64-1.4c-.93-.48-2.79-1.8-2.79-3.48a3,3,0,0,0-.63-1.86l-5.27-6.73a.32.32,0,0,1-.07-.25.29.29,0,0,1,.13-.23,4.39,4.39,0,0,1,.39-.27h0a3,3,0,0,1,3.85.8l2.87,3.66a.82.82,0,0,0,.66.33h0a.85.85,0,0,0,.84-.84l0-20a1.14,1.14,0,0,1,1.14-1.14h1a1.14,1.14,0,0,1,1.14,1.14V45.63a.93.93,0,0,0,1.19.9.94.94,0,0,0,.62-.58l0,0c.3-.67.7-.75,1-.75h1a1.14,1.14,0,0,1,1.08.79,1,1,0,0,0,.9.65.93.93,0,0,0,.89-.66,1.14,1.14,0,0,1,1.08-.78h1a1.14,1.14,0,0,1,1.13,1.14V47a.94.94,0,0,0,1.79.41v0c.24-.5.37-.75,1-.78h1a1.14,1.14,0,0,1,1.13,1.13v13s0,.07,0,.11c.57-.39,1.12-.8,1.66-1.22V47.73A2.81,2.81,0,0,0,51.42,44.92Z"/><path class="cls-2" d="M33.55,41.84a6.92,6.92,0,1,1,5-.32"/><rect class="cls-4" width="71.84" height="71.84"/></g></g></svg>