<svg xmlns="http://www.w3.org/2000/svg" viewBox="0 0 71.84 71.84"><defs><style>.cls-1{fill:#44cceb;}.cls-2,.cls-3{fill:none;}.cls-2{stroke:#fff;stroke-linejoin:round;stroke-width:1.5px;}</style></defs><g id="Layer_2" data-name="Layer 2"><g id="Layer_1-2" data-name="Layer 1"><circle class="cls-1" cx="36.64" cy="33.92" r="20.26"/><path class="cls-2" d="M65.76,14.4a3.13,3.13,0,1,1-3.13-3.13A3.13,3.13,0,0,1,65.76,14.4Z"/><path class="cls-2" d="M55.15,55.49a3.13,3.13,0,1,1-1.45-2.64A3.13,3.13,0,0,1,55.15,55.49Z"/><circle class="cls-2" cx="9.92" cy="38.06" r="3.13"/><path class="cls-2" d="M50.66,57.85a18,18,0,1,1,3.06-5"/><path class="cls-2" d="M64,17.13a18.26,18.26,0,1,1-3.87-4.49"/><path class="cls-2" d="M8.35,35.63a18,18,0,0,1-2.41-9.05A18.21,18.21,0,1,1,12,40.17"/><rect class="cls-3" width="71.84" height="71.84"/></g></g></svg>