<?xml version="1.0" encoding="UTF-8"?>
<svg width="441px" height="73px" viewBox="0 0 441 73" version="1.1" xmlns="http://www.w3.org/2000/svg" xmlns:xlink="http://www.w3.org/1999/xlink">
    <title>deltaSharing-horizontal</title>
    <g id="New" stroke="none" stroke-width="1" fill="none" fill-rule="evenodd">
        <g id="Sharing-210927" transform="translate(-500.000000, -151.000000)">
            <g id="HERO-" transform="translate(225.000000, 151.000000)">
                <g id="deltaSharing-horizontal" transform="translate(275.000000, 0.000000)">
                    <path d="M97.5068231,51.1322883 L97.5068231,21.8762613 C97.5074845,21.60529 97.6152678,21.345659 97.8065031,21.1543854 C97.9923987,20.9531574 98.2523477,20.8371998 98.525735,20.8335516 L110.073403,20.8335516 C114.0862,20.6868672 117.996033,22.1269429 120.961775,24.8439734 C122.487581,26.2539113 123.681838,27.9868133 124.458041,29.917157 C126.029331,34.2083635 126.029331,38.9204988 124.458041,43.2117053 C123.700427,45.1520444 122.503457,46.8888823 120.961775,48.2848889 C119.567359,49.56838 117.929919,50.5571837 116.146917,51.1924447 C114.224587,51.8826309 112.194763,52.2221786 110.153318,52.1950501 L98.585671,52.1950501 C98.3132812,52.1869218 98.0549795,52.071699 97.866439,51.8742164 C97.6119948,51.7190713 97.4713843,51.4289759 97.5068231,51.1322883 Z M106.896795,44.2945192 L110.073403,44.2945192 C110.909186,44.2901612 111.741247,44.1824039 112.550757,43.9736854 C113.383146,43.7783264 114.157095,43.3864921 114.808346,42.8307152 C115.527435,42.180535 116.105491,41.3887589 116.506533,40.5046706 C116.973777,39.2208849 117.197395,37.8606408 117.165829,36.4942488 C117.23676,35.1253655 117.011852,33.7572794 116.506533,32.483827 C116.13201,31.5787291 115.55022,30.7749681 114.808346,30.1377302 C114.152205,29.5893916 113.380093,29.1984876 112.550757,28.99476 C111.759491,28.7997009 110.948109,28.6987466 110.133339,28.6939784 L106.896795,28.6939784 C106.334066,28.6939784 105.877883,29.1518378 105.877883,29.7166359 L105.877883,43.3119658 C105.871491,43.5843143 105.980387,43.8466258 106.177563,44.0338417 C106.374497,44.2111574 106.632424,44.3046404 106.896795,44.2945192 L106.896795,44.2945192 Z" id="Shape" fill="#302D2D" fill-rule="nonzero"></path>
                    <path d="M137.703896,29.7567401 L137.703896,31.5814821 C137.704557,31.8524534 137.812341,32.1120843 138.003576,32.303358 C138.192116,32.5008406 138.450418,32.6160634 138.722808,32.6241917 L150.170582,32.6241917 C150.440815,32.6241917 150.699979,32.7319357 150.891062,32.9237212 C151.082145,33.1155067 151.189494,33.3756236 151.189494,33.6468493 L151.189494,39.5622214 C151.185717,39.8384753 151.078772,40.1032447 150.889814,40.3041495 C150.699241,40.4960877 150.440561,40.6042673 150.170582,40.6049311 L138.722808,40.6049311 C138.448368,40.6036546 138.186535,40.7204528 138.003576,40.9257649 C137.812341,41.1170385 137.704557,41.3766694 137.703896,41.6476408 L137.703896,43.2518095 C137.692187,43.5251331 137.801966,43.7895714 138.003576,43.9736854 C138.186535,44.1789974 138.448368,44.2957957 138.722808,44.2945192 L151.828812,44.2945192 C152.097931,44.2993857 152.355103,44.4069346 152.548043,44.5953008 C152.737001,44.7962056 152.843946,45.060975 152.847723,45.3372288 L152.847723,51.252601 C152.851652,51.5244791 152.743152,51.7858355 152.548043,51.9744769 C152.355103,52.1628431 152.097931,52.270392 151.828812,52.2752585 L130.351747,52.2752585 C129.789018,52.2752585 129.332835,51.8173992 129.332835,51.252601 L129.332835,21.8762613 C129.333497,21.60529 129.44128,21.345659 129.632515,21.1543854 C129.818411,20.9531574 130.07836,20.8371998 130.351747,20.8335516 L151.828812,20.8335516 C152.102199,20.8371998 152.362148,20.9531574 152.548043,21.1543854 C152.739279,21.345659 152.847062,21.60529 152.847723,21.8762613 L152.847723,27.6913729 C152.854116,27.9637214 152.74522,28.2260329 152.548043,28.4132488 C152.355103,28.601615 152.097931,28.7091639 151.828812,28.7140305 L138.722808,28.7140305 C138.450418,28.7221588 138.192116,28.8373816 138.003576,29.0348642 C137.782376,29.2044839 137.668139,29.4796615 137.703896,29.7567401 Z" id="Path" fill="#302D2D" fill-rule="nonzero"></path>
                    <path d="M181.337299,45.3372288 L181.337299,51.1322883 C181.326655,51.7036775 180.867705,52.164315 180.298408,52.174998 L159.200939,52.174998 C158.928113,52.1896335 158.663461,52.0789562 158.481707,51.8742164 C158.303801,51.6693347 158.210857,51.4038312 158.221984,51.1322883 L158.221984,21.8762613 C158.235614,21.6151696 158.32599,21.3639794 158.481707,21.1543854 C158.661385,20.9446 158.925389,20.8268332 159.200939,20.8332791 L165.574133,20.8332791 C165.84752,20.8371998 166.107469,20.9531574 166.293365,21.1543854 C166.4846,21.345659 166.592383,21.60529 166.593045,21.8762613 L166.593045,43.2518095 C166.587005,43.5165053 166.679625,43.773932 166.852767,43.9736854 C167.030656,44.1858723 167.295873,44.30418 167.571999,44.2945192 L180.298408,44.2945192 C180.867705,44.3052021 181.326655,44.7658397 181.337299,45.3372288 L181.337299,45.3372288 Z" id="Path" fill="#302D2D" fill-rule="nonzero"></path>
                    <path d="M200.996305,28.7140305 L195.002705,28.7140305 C194.730316,28.7221588 194.472014,28.8373816 194.283473,29.0348642 C194.092238,29.2261379 193.984455,29.4857688 193.983793,29.7567401 L193.983793,51.1322883 C193.987378,51.4026459 193.895354,51.6655248 193.724071,51.8742164 C193.537541,52.072118 193.27619,52.1814144 193.004839,52.1752654 L186.71156,52.1752654 C186.442441,52.1701314 186.185269,52.0625826 185.992328,51.8742164 C185.839254,51.6589493 185.76835,51.3956407 185.792541,51.1322883 L185.792541,29.7567401 C185.788298,29.4938325 185.696913,29.2398354 185.532818,29.0348642 C185.351453,28.8273677 185.088574,28.7101028 184.813586,28.7140305 L178.819987,28.7140305 C178.547665,28.7257825 178.284195,28.6155999 178.100755,28.4132488 C177.896195,28.2296175 177.779825,27.9668214 177.781086,27.6913729 L177.781086,21.8762613 C177.779825,21.6008128 177.896195,21.3380167 178.100755,21.1543854 C178.276742,20.9396754 178.543269,20.8207836 178.819987,20.8335516 L201.136155,20.8335516 C201.414738,20.8103125 201.685894,20.9312694 201.855387,21.1543854 C202.035889,21.3497192 202.129624,21.6102464 202.11511,21.8762613 L202.11511,27.6913729 C202.117439,27.9554475 202.02528,28.2115944 201.855387,28.4132488 C201.630321,28.6407277 201.313508,28.7516503 200.996305,28.7140305 Z" id="Path" fill="#302D2D" fill-rule="nonzero"></path>
                    <path d="M211.105509,21.816105 C211.226971,21.547569 211.420709,21.3183955 211.664911,21.1543854 C211.915764,20.9614401 212.228924,20.8685754 212.543973,20.893708 L218.537572,20.893708 C218.82886,20.9058994 219.111629,20.9958877 219.356697,21.1543854 C219.60132,21.3235369 219.800377,21.550883 219.936078,21.816105 L232.302872,50.8716109 C232.42882,51.1381098 232.42882,51.4473006 232.302872,51.7137995 C232.095037,52.0107533 231.743547,52.1718062 231.383853,52.1348938 L224.151577,52.1348938 C223.841602,52.1222096 223.539586,52.0326495 223.272515,51.8742164 C223.030269,51.6825275 222.821038,51.4522044 222.653177,51.1924447 L221.534372,48.6458268 C221.371248,48.3881061 221.161123,48.1636033 220.915033,47.9841072 C220.682582,47.8002763 220.391427,47.7076195 220.095908,47.7234298 L211.165445,47.7234298 C210.854,47.7267654 210.549625,47.817025 210.286384,47.9841072 C210.042181,48.1481173 209.848443,48.3772908 209.726981,48.6458268 L208.54824,51.1924447 C208.408825,51.4606576 208.210753,51.6937339 207.968859,51.8742164 C207.733955,52.0533514 207.444561,52.1454478 207.149733,52.1348938 L199.777606,52.1348938 C199.618789,52.1209911 199.463442,52.080317 199.318097,52.0145811 C199.175041,51.9655599 199.049823,51.8747919 198.958481,51.7539037 C198.864736,51.6356776 198.796682,51.4990685 198.758694,51.3528615 C198.688652,51.1516192 198.688652,50.9324885 198.758694,50.7312461 L211.105509,21.816105 Z M213.622821,40.4445142 L217.358831,40.4445142 C217.592431,40.4479466 217.816882,40.3534763 217.978169,40.1838368 C218.078573,39.9747736 218.078573,39.7311804 217.978169,39.5221172 C217.718447,38.7801892 217.358831,37.9580527 216.959257,37.0156036 C216.559684,36.0731545 216.18009,35.1507575 215.88041,34.328621 C215.88041,34.0679436 215.620687,33.967683 215.520794,33.967683 C215.4209,33.967683 215.261071,33.967683 215.161178,34.328621 L213.043439,39.5221172 C212.943035,39.7311804 212.943035,39.9747736 213.043439,40.1838368 C213.103375,40.3442537 213.303162,40.4445142 213.622821,40.4445142 Z" id="Shape" fill="#302D2D" fill-rule="nonzero"></path>
                    <path d="M313.416249,21.816105 C313.537711,21.547569 313.73145,21.3183955 313.975652,21.1543854 C314.227361,20.9631366 314.539864,20.8704668 314.854713,20.893708 L320.848312,20.893708 C321.145793,20.9061617 321.434943,20.9959897 321.687416,21.1543854 C321.926441,21.3241446 322.118862,21.5517602 322.246819,21.816105 L334.613612,50.8716109 C334.753107,51.1774244 334.711563,51.5357252 334.505827,51.8012152 C334.300091,52.0667052 333.964313,52.1953162 333.634658,52.1348938 L326.402381,52.1348938 C326.093192,52.1175538 325.792252,52.0283127 325.52332,51.8742164 C325.281074,51.6825275 325.071842,51.4522044 324.903981,51.1924447 L323.645325,48.6458268 C323.482201,48.3881061 323.272077,48.1636033 323.025987,47.9841072 C322.793536,47.8002763 322.502381,47.7076195 322.206862,47.7234298 L313.276399,47.7234298 C312.964954,47.7267654 312.660579,47.817025 312.397337,47.9841072 C312.153135,48.1481173 311.959397,48.3772908 311.837935,48.6458268 L310.659193,51.1924447 C310.525528,51.4586059 310.334426,51.691512 310.099791,51.8742164 C309.855892,52.0506155 309.561226,52.142157 309.260687,52.1348938 L301.988453,52.1348938 C301.828822,52.1259471 301.672587,52.0850403 301.528944,52.0145811 C301.383385,51.970529 301.256757,51.8787396 301.169328,51.7539037 C301.061414,51.6425346 300.985484,51.5039718 300.949563,51.3528615 C300.920777,51.1402995 300.955545,50.9239455 301.049456,50.7312461 L313.416249,21.816105 Z M315.873625,40.4445142 L319.649592,40.4445142 C319.883193,40.4479466 320.107643,40.3534763 320.268931,40.1838368 C320.369335,39.9747736 320.369335,39.7311804 320.268931,39.5221172 C320.009208,38.7801892 319.649592,37.9580527 319.230041,37.0156036 C318.810489,36.0731545 318.470851,35.1507575 318.151193,34.328621 C318.051299,34.0679436 317.911449,33.967683 317.791577,33.967683 C317.671705,33.967683 317.551833,33.967683 317.431961,34.328621 L315.434094,39.5221172 C315.33369,39.7311804 315.33369,39.9747736 315.434094,40.1838368 C315.374158,40.3442537 315.65386,40.4445142 315.873625,40.4445142 L315.873625,40.4445142 Z" id="Shape" fill="#302D2D" fill-rule="nonzero"></path>
                    <rect id="Rectangle" fill="#302D2D" fill-rule="nonzero" x="367.518472" y="20.8335516" width="8.37106038" height="31.28129" rx="1"></rect>
                    <path d="M298.15255,20.8335516 L291.679462,20.8335516 C291.416329,20.8335516 291.164251,20.9397634 290.980077,21.1283878 C290.795902,21.3170122 290.695138,21.572111 290.700508,21.8361571 L290.700508,31.6416384 C290.689879,32.1908826 290.248807,32.6335759 289.701575,32.6442438 L282.049746,32.6442438 C281.498051,32.6442438 281.050813,32.1953621 281.050813,31.6416384 L281.050813,21.8361571 C281.050813,21.2824334 280.603575,20.8335516 280.05188,20.8335516 L273.698664,20.8335516 C273.435531,20.8335516 273.183453,20.9397634 272.999279,21.1283878 C272.815104,21.3170122 272.71434,21.572111 272.719506,21.8361571 L272.719506,51.1322883 C272.719506,51.6782748 273.154786,52.1239741 273.698664,52.1348938 L280.091837,52.1348938 C280.639069,52.1242258 281.080141,51.6815325 281.09077,51.1322883 L281.09077,41.4872239 C281.09077,40.9335002 281.538008,40.4846185 282.089703,40.4846185 L289.741532,40.4846185 C290.293227,40.4846185 290.740465,40.9335002 290.740465,41.4872239 L290.740465,51.1322883 C290.740356,51.6782748 291.175542,52.1239741 291.71942,52.1348938 L298.112592,52.1348938 C298.65647,52.1239741 299.091772,51.6782748 299.091772,51.1322883 L299.091772,21.8361571 C299.102869,21.3010455 298.685382,20.8552772 298.15255,20.8335516 Z" id="Path" fill="#302D2D" fill-rule="nonzero"></path>
                    <path d="M406.017359,20.8335516 L399.56425,20.8335516 C399.012554,20.8335516 398.565317,21.2824334 398.565317,21.8361571 L398.565317,35.3913828 C398.562797,35.5000889 398.493313,35.5958064 398.390989,35.6315282 C398.288665,35.6672501 398.174997,35.6354718 398.105808,35.5517996 L388.536027,21.6957923 C388.163391,21.1566668 387.551526,20.8346314 386.897777,20.8335516 L380.584519,20.8335516 C380.032823,20.8335516 379.585586,21.2824334 379.585586,21.8361571 L379.585586,51.1322883 C379.585586,51.686012 380.032823,52.1348938 380.584519,52.1348938 L386.957713,52.1348938 C387.504945,52.1242258 387.946017,51.6815325 387.956646,51.1322883 L387.956646,37.5770627 C387.953291,37.4695423 388.021448,37.3728491 388.123581,37.3402325 C388.225715,37.307616 388.33701,37.3470009 388.396177,37.4366979 L397.965957,51.2726531 C398.338594,51.8117786 398.950458,52.133814 399.604207,52.1348938 L405.937444,52.1348938 C406.484676,52.1242258 406.925748,51.6815325 406.936382,51.1322883 L406.936382,21.8361571 C406.93805,21.3123021 406.537625,20.8754576 406.017359,20.8335516 Z" id="Path" fill="#302D2D" fill-rule="nonzero"></path>
                    <path d="M410.772281,36.5143009 L410.772281,36.5143009 C410.741222,32.1252351 412.503335,27.9150863 415.647983,24.8649687 C418.792631,21.8148511 423.045135,20.1911889 427.414508,20.3723531 C431.667831,20.2371568 435.833137,21.607037 439.181942,24.2424102 C439.606555,24.5998373 439.668686,25.2323392 439.321792,25.6661099 L435.525846,30.0775739 C435.178596,30.4885992 434.569738,30.5505945 434.147318,30.2179387 C432.247025,28.7749659 429.916652,28.0188733 427.53438,28.072363 C425.340216,28.1027364 423.25193,29.0240763 421.746107,30.6261173 C420.240283,32.2281583 419.445418,34.374192 419.542914,36.5744572 L419.542914,36.5744572 C419.43067,38.8570423 420.272449,41.0831112 421.865369,42.7161461 C423.458288,44.349181 425.65786,45.2410549 427.933953,45.176812 C429.669694,45.2537351 431.388565,44.8067225 432.868684,43.893477 L432.868684,41.1062338 C432.868684,40.5525101 432.421446,40.1036284 431.86975,40.1036284 L427.774124,40.1036284 C427.222429,40.1036284 426.775191,39.6547466 426.775191,39.1010229 L426.775191,34.8098716 C426.78582,34.2606274 427.226892,33.8179341 427.774124,33.8072662 L440.001067,33.8072662 C440.552762,33.8072662 441,34.2561479 441,34.8098716 L441,46.841137 C440.998514,47.4617431 440.710803,48.0466846 440.220832,48.4252536 C436.55574,51.1573105 432.099437,52.6082919 427.53438,52.5559881 C417.984579,52.5559881 410.772281,45.8986879 410.772281,36.5143009 Z" id="Path" fill="#302D2D" fill-rule="nonzero"></path>
                    <path d="M336.431671,21.816105 C336.431671,21.2623813 336.878908,20.8134995 337.430604,20.8134995 L351.175925,20.8134995 C355.950826,20.8134995 359.167391,22.0567303 361.345065,24.202306 C363.233007,26.146146 364.231592,28.7897782 364.102121,31.5012736 L364.102121,31.5012736 C364.279599,35.8117995 361.65151,39.7400184 357.609055,41.2064944 L363.982249,50.5507772 C364.186681,50.8630807 364.205124,51.2624314 364.030352,51.5923764 C363.855581,51.9223214 363.515424,52.1303234 363.143145,52.1348938 L356.210548,52.1348938 C355.542224,52.1314235 354.919894,51.7927751 354.552319,51.2325489 L349.15808,43.0913926 C348.970041,42.8121279 348.654777,42.6463825 348.318976,42.6502462 L346.061387,42.6502462 C345.509691,42.6502462 345.062454,43.099128 345.062454,43.6528517 L345.062454,51.1322883 C345.062454,51.686012 344.615216,52.1348938 344.06352,52.1348938 L337.430604,52.1348938 C336.878908,52.1348938 336.431671,51.686012 336.431671,51.1322883 L336.431671,21.816105 Z M350.776352,35.8525813 C353.713215,35.8525813 355.411402,34.4288815 355.411402,32.1429411 L355.411402,32.1429411 C355.411402,29.6765317 353.633301,28.433301 350.736394,28.433301 L346.061387,28.433301 C345.509691,28.433301 345.062454,28.8821827 345.062454,29.4359064 L345.062454,34.9301843 C345.062454,35.483908 345.509691,35.9327897 346.061387,35.9327897 L350.776352,35.8525813 Z" id="Shape" fill="#302D2D" fill-rule="nonzero"></path>
                    <path d="M244.050326,46.4601469 L247.566571,42.249204 C247.906193,41.8441059 248.5011,41.7738595 248.925121,42.0887872 C251.602152,44.1024693 254.849959,45.2054441 258.195221,45.2369683 C260.492767,45.2369683 261.731444,44.4348839 261.731444,43.1114447 L261.731444,43.1114447 C261.731444,41.8281098 260.712533,41.1062338 256.517013,40.1437326 C249.944032,38.6398244 244.869452,36.7749783 244.869452,30.3984076 L244.869452,30.3984076 C244.869452,24.6434524 249.404608,20.3723531 256.85665,20.3723531 C261.126779,20.222446 265.331024,21.4602247 268.843849,23.9015243 C269.272538,24.2391528 269.368466,24.851849 269.063614,25.3051719 L265.887007,29.7767923 C265.577018,30.215186 264.977705,30.3301818 264.528457,30.0374697 C262.196297,28.4787791 259.477227,27.6038115 256.676842,27.5109039 C254.678976,27.5109039 253.600128,28.3931967 253.600128,29.5161148 L253.600128,29.5161148 C253.600128,30.9398146 254.658997,31.5213257 258.934431,32.5239312 C266.046836,34.0679436 270.462121,36.3739361 270.462121,42.1890477 L270.462121,42.1890477 C270.462121,48.5255142 265.467455,52.2151022 257.975455,52.2151022 C253.02693,52.3118604 248.190748,50.729201 244.250113,47.7234298 C243.89698,47.4012541 243.81395,46.8762396 244.050326,46.4601469 L244.050326,46.4601469 Z" id="Path" fill="#302D2D" fill-rule="nonzero"></path>
                    <path d="M68.817461,69.3997596 C69.0268007,69.2856767 69.1706542,69.0795929 69.20599,68.8431548 C69.2413258,68.6067167 69.1640465,68.3673409 68.997269,68.1966331 C67.2391465,66.1914222 61.6650992,61.3388118 61.6650992,61.3388118 C61.1456539,60.9778738 60.4064433,61.3388118 59.827062,61.4791766 C57.8937835,62.1237642 55.8706131,62.4554302 53.8334627,62.4617299 C52.34638,62.4630771 50.8643462,62.2880792 49.4181779,61.9403751 C45.8800438,61.2012036 42.4988491,59.8437538 39.4288457,57.9299533 C30.7386183,52.2508226 19.6015206,51.9715655 10.6395903,57.2080774 C6.38538312,60.0687443 2.78893028,63.8083118 0.0908555047,68.176581 C-0.0440391963,68.3691883 -0.027218232,68.6300597 0.131286233,68.8036093 C0.289790697,68.977159 0.547265888,69.0166197 0.75015143,68.8984569 C4.96564962,66.6125165 16.313531,61.2586034 26.5226285,63.1836058 C30.6119092,64.2307919 34.5524662,65.7939435 38.2501045,67.8356951 C41.0271388,69.1791864 43.8641092,70.5627819 46.7410369,71.6455958 C56.0510945,75.0143501 65.2213014,71.2646058 68.817461,69.3997596 Z" id="Path" fill="#00ADD4" fill-rule="nonzero"></path>
                    <path d="M39.6086537,0.981963743 L57.329729,31.6015342 C57.427427,31.7950583 57.4052972,32.0277584 57.2728873,32.199238 C57.1404773,32.3707177 56.9214842,32.4502878 56.7103904,32.4036185 C55.7992583,32.1946519 54.8679636,32.0870585 53.933356,32.0827848 C51.5807523,32.0853941 49.280921,32.7827614 47.3204181,34.0879957 C47.075004,34.253518 46.7734831,34.3127877 46.483989,34.252412 C46.1944949,34.1920362 45.9414598,34.0171104 45.782061,33.7671619 L38.7295924,21.5754797 C38.5702333,21.2570307 38.2455428,21.0560303 37.8904885,21.0560303 C37.5354342,21.0560303 37.2107438,21.2570307 37.0513846,21.5754797 L25.6435673,41.3468591 C25.5434004,41.4833781 25.5221955,41.6627264 25.5877468,41.8189829 C25.6532981,41.9752395 25.7959334,42.0853488 25.9632259,42.1088393 C31.9765588,43.3897476 37.4884223,46.39967 41.8262854,50.7713504 C42.1772293,51.1345247 42.217783,51.6981497 41.9224716,52.1081657 C41.6271601,52.5181816 41.0812048,52.6562655 40.6275656,52.4356754 C37.5402907,50.8432545 34.2124688,49.7728108 30.778084,49.2674422 C25.9909133,48.6704324 21.1351503,48.9627133 16.4533816,50.1296829 C14.9749605,50.4906208 13.3766673,50.9117151 11.8982462,51.3729136 C10.419825,51.8341121 9.74055041,52.1348938 9.74055041,52.1348938 C9.32099845,52.2752585 8.92142517,52.4557275 8.58178787,52.5960923 L8.44193722,52.5960923 C8.03699233,52.7922349 7.55182217,52.6987803 7.24799321,52.3661121 C6.94416426,52.0334439 6.89351246,51.5402166 7.12334537,51.1523404 L36.1723234,0.981963743 C36.5322144,0.373208783 37.1852266,0 37.8904885,0 C38.5957505,0 39.2487627,0.373208783 39.6086537,0.981963743 Z" id="Path" fill="#00ADD4" fill-rule="nonzero"></path>
                    <path d="M77.9077533,36.0932066 C82.321318,36.0932066 85.8992191,32.5021526 85.8992191,28.072363 C85.8992191,23.6425734 82.321318,20.0515194 77.9077533,20.0515194 C73.4941886,20.0515194 69.9162876,23.6425734 69.9162876,28.072363 C69.9191689,28.972711 70.0676085,29.8666229 70.3558182,30.7192414 L59.2676594,38.0984175 C56.054851,35.2545706 51.1793269,35.459118 48.2141892,38.562154 C45.2490515,41.6651899 45.2490515,46.5629104 48.2141892,49.6659464 C51.1793269,52.7689823 56.054851,52.9735297 59.2676594,50.1296829 L70.3558182,57.5489632 C70.0718392,58.3888275 69.9234568,59.2688562 69.9162876,60.1557374 C69.9365466,63.9370815 72.5854095,67.190612 76.2733319,67.9639322 C79.9612543,68.7372525 83.6863909,66.8202856 85.213341,63.3633757 C86.7402911,59.9064657 85.6542499,55.8487023 82.6069351,53.6250905 C79.5596203,51.4014788 75.3788524,51.6160756 72.5734499,54.1401047 L61.4852912,46.7208244 C62.071332,45.005255 62.071332,43.1426369 61.4852912,41.4270676 L72.5734499,34.0879957 C74.045795,35.3913279 75.9446146,36.1051107 77.9077533,36.0932066 Z" id="Path" fill="#00687F"></path>
                </g>
            </g>
        </g>
    </g>
</svg>