<svg width="83" height="21" viewBox="0 0 83 21" fill="none" xmlns="http://www.w3.org/2000/svg">
<g clip-path="url(#clip0_3_7)">
<path d="M0 3.1H3.2V14.9H9.2V17.9H0V3.1Z" fill="#0A66C2"/>
<path d="M10.7 7.9H13.8V17.9H10.7V7.9ZM12.2 2.9C13.2 2.9 14 3.7 14 4.7C14 5.7 13.2 6.5 12.2 6.5C11.2 6.5 10.4 5.7 10.4 4.7C10.4 3.7 11.2 2.9 12.2 2.9Z" fill="#0A66C2"/>
<path d="M26.8 3.1H29.9V11.9L33.4 7.9H37.2L33.2 12.5L37.2 17.9H33.3L29.9 12.9V17.9H26.8V3.1Z" fill="#0A66C2"/>
<path d="M15.5 7.9H18.5V9.3C19.1 8.3 20.2 7.6 21.4 7.7C24.6 7.7 25.1 9.8 25.1 12.5V18H22V13C22 11.8 22 10.3 20.4 10.3C18.8 10.3 18.5 11.6 18.5 12.9V17.9H15.4V7.9H15.5Z" fill="#0A66C2"/>
<path d="M43.8 11.7C43.8 10.7 43 9.8 42 9.8H41.9C40.8 9.7 39.8 10.6 39.7 11.7H43.8ZM46.4 16.2C45.4 17.5 43.8 18.2 42.1 18.2C39 18.2 36.5 16.1 36.5 12.9C36.5 9.7 39 7.6 42.1 7.6C45 7.6 46.8 9.7 46.8 12.9V13.9H39.6C39.8 15 40.8 15.9 41.9 15.9C42.8 15.9 43.6 15.4 44.1 14.7L46.4 16.2Z" fill="#0A66C2"/>
<path d="M53.4 10.3C51.8 10.3 50.9 11.3 50.9 12.9C50.9 14.5 51.8 15.5 53.4 15.5C55 15.5 55.9 14.5 55.9 12.9C55.9 11.3 55 10.3 53.4 10.3ZM58.8 17.9H55.9V16.6C55.2 17.6 54 18.2 52.8 18.2C49.8 18.2 47.8 16 47.8 13C47.8 10.2 49.5 7.6 52.4 7.6C53.7 7.6 54.9 8 55.6 8.9V3.1H58.7L58.8 17.9Z" fill="#0A66C2"/>
<path d="M81.3 0H63.4C62.6 0 61.9 0.7 61.8 1.5V19.5C61.8 20.3 62.5 21 63.4 21H81.3C82.1 21 82.8 20.3 82.9 19.5V1.5C82.9 0.7 82.2 0 81.3 0ZM68.1 17.9H65V7.9H68.1V17.9ZM66.5 6.5C65.5 6.5 64.7 5.7 64.7 4.7C64.7 3.7 65.5 2.9 66.5 2.9C67.5 2.9 68.3 3.7 68.3 4.7C68.3 5.7 67.5 6.5 66.5 6.5ZM79.8 17.9H76.7V13C76.7 11.8 76.7 10.3 75.1 10.3C73.5 10.3 73.2 11.6 73.2 12.9V17.9H70.1V7.9H73.1V9.3C73.7 8.3 74.8 7.6 76 7.7C79.2 7.7 79.7 9.8 79.7 12.5L79.8 17.9Z" fill="#0A66C2"/>
</g>
<defs>
<clipPath id="clip0_3_7">
<rect width="82.9" height="21" fill="white"/>
</clipPath>
</defs>
</svg>
